<svg width="81" height="80" viewBox="0 0 81 80" fill="none" xmlns="http://www.w3.org/2000/svg">
<path d="M40.2741 7.20735C50.9546 7.20735 52.2196 7.248 56.4374 7.44044C60.3374 7.61843 62.4554 8.27007 63.865 8.8177C65.732 9.54333 67.0646 10.4103 68.4643 11.8099C69.8639 13.2096 70.7308 14.5422 71.4563 16.4091C72.0041 17.8188 72.6557 19.9368 72.8337 23.8366C73.0262 28.0546 73.0668 29.3196 73.0668 40.0001C73.0668 50.6806 73.0262 51.9456 72.8337 56.1634C72.6557 60.0634 72.0041 62.1814 71.4563 63.591C70.7308 65.458 69.8639 66.7906 68.4643 68.1902C67.0646 69.5899 65.732 70.4568 63.865 71.1823C62.4554 71.7301 60.3374 72.3817 56.4374 72.5597C52.2202 72.7522 50.9552 72.7928 40.2741 72.7928C29.5929 72.7928 28.3279 72.7522 24.1107 72.5597C20.2108 72.3817 18.0928 71.7301 16.6833 71.1823C14.8162 70.4568 13.4836 69.5899 12.0839 68.1902C10.6843 66.7906 9.81734 65.458 9.09187 63.591C8.54408 62.1814 7.89245 60.0634 7.71445 56.1636C7.52201 51.9456 7.48136 50.6806 7.48136 40.0001C7.48136 29.3196 7.52201 28.0546 7.71445 23.8367C7.89245 19.9368 8.54408 17.8188 9.09187 16.4091C9.81734 14.5422 10.6843 13.2096 12.0839 11.8099C13.4836 10.4103 14.8162 9.54333 16.6833 8.8177C18.0928 8.27007 20.2108 7.61843 24.1106 7.44044C28.3286 7.248 29.5936 7.20735 40.2741 7.20735ZM40.2741 0C29.4107 0 28.0486 0.0460463 23.7822 0.240711C19.5245 0.435058 16.6169 1.11114 14.0725 2.10003C11.4421 3.12225 9.21143 4.48999 6.98772 6.71371C4.764 8.93742 3.39627 11.1681 2.37404 13.7985C1.38516 16.3429 0.709069 19.2505 0.514722 23.5082C0.320057 27.7745 0.27417 29.1367 0.27417 40.0001C0.27417 50.8635 0.320057 52.2257 0.514722 56.4919C0.709069 60.7496 1.38516 63.6572 2.37404 66.2017C3.39627 68.8319 4.764 71.0627 6.98772 73.2865C9.21143 75.5102 11.4421 76.8779 14.0725 77.9001C16.6169 78.889 19.5245 79.5651 23.7822 79.7595C28.0486 79.9541 29.4107 80 40.2741 80C51.1375 80 52.4997 79.9541 56.766 79.7595C61.0237 79.5651 63.9312 78.889 66.4757 77.9001C69.106 76.8779 71.3367 75.5102 73.5605 73.2865C75.7842 71.0627 77.1519 68.832 78.1741 66.2017C79.163 63.6572 79.8391 60.7496 80.0335 56.4919C80.2281 52.2257 80.2742 50.8635 80.2742 40.0001C80.2742 29.1367 80.2281 27.7745 80.0335 23.5082C79.8391 19.2505 79.163 16.3429 78.1741 13.7985C77.1519 11.1681 75.7842 8.93742 73.5605 6.71371C71.3367 4.48999 69.106 3.12225 66.4757 2.10003C63.9312 1.11114 61.0237 0.435058 56.766 0.240711C52.4997 0.0460463 51.1375 0 40.2741 0ZM40.2741 19.4595C28.9299 19.4595 19.7335 28.6559 19.7335 40.0001C19.7335 51.3443 28.9299 60.5407 40.2741 60.5407C51.6183 60.5407 60.8147 51.3443 60.8147 40.0001C60.8147 28.6559 51.6183 19.4595 40.2741 19.4595ZM40.2741 53.3335C32.9103 53.3335 26.9407 47.3638 26.9407 40.0001C26.9407 32.6363 32.9103 26.6667 40.2741 26.6667C47.6378 26.6667 53.6075 32.6363 53.6075 40.0001C53.6075 47.3638 47.6378 53.3335 40.2741 53.3335ZM66.4261 18.6479C66.4261 21.2989 64.2772 23.448 61.6262 23.448C58.9752 23.448 56.8261 21.2989 56.8261 18.6479C56.8261 15.997 58.9752 13.848 61.6262 13.848C64.2772 13.848 66.4261 15.997 66.4261 18.6479Z" fill="#F4F4EE"/>
</svg>
