<svg width="81" height="80" viewBox="0 0 81 80" fill="none" xmlns="http://www.w3.org/2000/svg">
<path d="M40.7256 0C18.6348 0 0.72583 17.9089 0.72583 40.0002C0.72583 62.0925 18.6348 80 40.7256 80C62.8188 80 80.7258 62.0925 80.7258 40.0002C80.7258 17.9104 62.8188 0.00191064 40.7251 0.00191064L40.7256 0ZM59.0692 57.6918C58.3527 58.8669 56.8147 59.2394 55.6397 58.5182C46.2482 52.7815 34.4254 51.4822 20.5019 54.6635C19.1602 54.9692 17.8228 54.1285 17.5171 52.7863C17.21 51.444 18.0473 50.1066 19.3924 49.8009C34.6294 46.3197 47.6993 47.8186 58.2429 54.2622C59.4179 54.9835 59.7905 56.5168 59.0692 57.6918ZM63.9651 46.8002C63.0624 48.2676 61.1422 48.7309 59.6758 47.8281C48.924 41.2192 32.5344 39.3052 19.817 43.1657C18.1677 43.6639 16.4257 42.7344 15.9251 41.0879C15.4283 39.4385 16.3583 37.6998 18.0048 37.1983C32.5315 32.7904 50.591 34.9256 62.9382 42.5132C64.4046 43.416 64.8679 45.3362 63.9651 46.8007V46.8002ZM64.3855 35.4586C51.4937 27.8013 30.224 27.0972 17.9155 30.833C15.939 31.4324 13.8488 30.3166 13.2498 28.3401C12.6508 26.3626 13.7656 24.2737 15.7436 23.6728C29.8729 19.3835 53.3613 20.2122 68.2038 29.0236C69.9854 30.0788 70.5681 32.3749 69.5125 34.1503C68.4617 35.9282 66.1594 36.5143 64.3874 35.4586H64.3855Z" fill="#F4F4EE"/>
</svg>
