<svg width="115" height="80" viewBox="0 0 115 80" fill="none" xmlns="http://www.w3.org/2000/svg">
<path d="M111.887 12.5161C110.597 7.6129 106.726 3.74194 101.823 2.3871C92.9839 4.61455e-07 57.5 0 57.5 0C57.5 0 22.0162 4.61455e-07 13.1129 2.3871C8.2097 3.67742 4.40325 7.54839 3.04841 12.5161C0.72583 21.4194 0.72583 40 0.72583 40C0.72583 40 0.72583 58.5806 3.11293 67.4839C4.40325 72.3871 8.27422 76.2581 13.1774 77.6129C22.0162 80 57.5 80 57.5 80C57.5 80 92.9839 80 101.887 77.6129C106.79 76.3226 110.597 72.4516 111.952 67.4839C114.274 58.5806 114.274 40 114.274 40C114.274 40 114.274 21.4194 111.887 12.5161Z" fill="#F4F4EE"/>
<path d="M45.8872 56.9033V23.0968L75.5646 40L45.8872 56.9033Z" fill="#BEA5C0"/>
</svg>
